<svg xmlns="http://www.w3.org/2000/svg" version="1.1" xmlns:xlink="http://www.w3.org/1999/xlink" xmlns:svgjs="http://svgjs.dev/svgjs" width="2000" height="1252" viewBox="0 0 2000 1252"><g transform="matrix(1,0,0,1,-1.2121212121212466,111.40794884327124)"><svg viewBox="0 0 396 248" data-background-color="#ffffff" preserveAspectRatio="xMidYMid meet" height="1252" width="2000" xmlns="http://www.w3.org/2000/svg" xmlns:xlink="http://www.w3.org/1999/xlink"><g id="tight-bounds" transform="matrix(1,0,0,1,0.2400000000000091,0.4000000000000057)"><svg viewBox="0 0 395.52 247.2" height="247.2" width="395.52"><g><svg></svg></g><g><svg viewBox="0 0 395.52 247.2" height="247.2" width="395.52"><g transform="matrix(1,0,0,1,75.54432,105.41543279539347)"><svg viewBox="0 0 244.43135999999998 36.369134409213046" height="36.369134409213046" width="244.43135999999998"><g><svg viewBox="0 0 244.43135999999998 36.369134409213046" height="36.369134409213046" width="244.43135999999998"><g><svg viewBox="0 0 244.43135999999998 36.369134409213046" height="36.369134409213046" width="244.43135999999998"><g><svg viewBox="0 0 244.43135999999998 36.369134409213046" height="36.369134409213046" width="244.43135999999998"><g id="textblocktransform"><svg viewBox="0 0 244.43135999999998 36.369134409213046" height="36.369134409213046" width="244.43135999999998" id="textblock"><g><svg viewBox="0 0 244.43135999999998 36.369134409213046" height="36.369134409213046" width="244.43135999999998"><g transform="matrix(1,0,0,1,0,0)"><svg width="244.43135999999998" viewBox="2.54 -38.11 317.96999999999997 47.31" height="36.369134409213046" data-palette-color="#0c0a0f"><path d="M34.5-16.6L34.5-16.6 34.5-7.06 37.89-7.06 37.89 0 22.78 0 22.78-16.65Q22.78-17.7 22.11-18.51 21.44-19.31 20.48-19.31L20.48-19.31Q18.7-19.31 18.24-17.53L18.24-17.53Q17.75-15.7 17.75-12.4L17.75-12.4 17.75-7.06 17.8-7.06 17.8 0 2.54 0 2.54-7.06 6.08-7.06 6.08-18.6 2.54-18.6 2.54-25.2 17.75-26.66 17.75-23Q19.43-25 21.58-25.83 23.73-26.66 26.44-26.66L26.44-26.66Q34.5-26.66 34.5-16.6ZM55.17 0.44L55.17 0.44Q50.73 0.44 47.43-1.2L47.43-1.2Q44.09-2.81 42.23-5.93 40.38-9.06 40.38-13.35L40.38-13.35Q40.38-17.63 42.23-20.61L42.23-20.61Q44.09-23.61 47.43-25.13 50.78-26.66 55.17-26.66L55.17-26.66Q59.69-26.66 63.02-25.1 66.35-23.54 68.19-20.57 70.02-17.6 70.02-13.35L70.02-13.35Q70.02-9.06 68.19-5.93L68.19-5.93Q66.33-2.81 62.97-1.18 59.62 0.44 55.17 0.44ZM55.17-6.69L55.17-6.69Q56.78-6.69 57.57-8.28L57.57-8.28Q58.32-9.81 58.32-13.35L58.32-13.35Q58.32-16.6 57.58-18.05 56.83-19.51 55.17-19.51L55.17-19.51Q53.59-19.51 52.83-18.05 52.07-16.6 52.07-13.35L52.07-13.35Q52.07-9.89 52.85-8.28L52.85-8.28Q53.64-6.69 55.17-6.69ZM85.98 0.44L85.98 0.44Q76.58 0.44 76.58-9.35L76.58-9.35 76.58-18.99 72.68-18.99 72.68-26.15 76.58-26.15 76.58-31.74 88.28-34.35 88.28-26.15 92.96-26.15 92.96-18.99 88.28-18.99 88.28-10.21Q88.28-9.11 89.11-8.37 89.94-7.64 91.18-7.64L91.18-7.64Q92.08-7.64 92.96-7.79L92.96-7.79 92.96-1Q89.74 0.44 85.98 0.44ZM115.47-7.35L115.47 0 96.72 0 96.72-7.35 99.87-7.35 99.87-18.6 96.72-18.6 96.72-25.2 111.56-26.66 111.56-22.41Q112.35-23.63 113.86-24.6 115.37-25.56 117.09-26.11 118.82-26.66 120.18-26.66L120.18-26.66 120.18-16.31Q117.33-17.26 115.47-17.26L115.47-17.26Q113.13-17.26 112.35-15.91 111.56-14.55 111.56-12.35L111.56-12.35 111.56-7.35 115.47-7.35ZM144.2 1.49L147.96 1.49 147.96 9.2 131.07 9.2 131.07 1.49 136.03 1.49 137.37-0.76 125.97-18.6 122.87-18.6 122.87-26.15 141.18-26.15 141.18-18.6 138.76-18.6 142.81-11.11 146.52-18.6 143.86-18.6 143.86-26.15 157.51-26.15 157.51-18.6 154.87-18.6 144.2 1.49ZM169.96 0.44L169.96 0.44Q167.47 0.44 165.44-0.54L165.44-0.54Q163.39-1.49 162.17-3.3 160.95-5.1 160.95-7.5L160.95-7.5Q160.95-10.08 162.39-11.89L162.39-11.89Q163.83-13.65 166.16-14.53 168.49-15.41 171.2-15.41L171.2-15.41Q174.4-15.41 177.36-14.45L177.36-14.45 177.36-15.55Q177.36-17.5 175.71-18.53 174.06-19.56 171.25-19.56L171.25-19.56Q170.06-19.56 168.57-19.26 167.08-18.97 165.66-18.46 164.25-17.94 163.2-17.31L163.2-17.31 162.49-17.6 162.49-24.71Q165.44-25.76 168.52-26.21 171.59-26.66 174.26-26.66L174.26-26.66Q189.1-26.66 189.1-18.31L189.1-18.31 189.1-7.35 191.39-7.35 191.39 0 178.89 0 177.8-4Q176.75-1.95 174.52-0.76 172.3 0.44 169.96 0.44ZM174.55-5.81L174.55-5.81Q175.35-5.81 176.2-6.08 177.04-6.35 177.36-6.64L177.36-6.64 177.36-10.74Q176.99-10.79 176.18-11.04L176.18-11.04Q175.35-11.25 174.74-11.25L174.74-11.25Q173.45-11.25 172.68-10.45 171.91-9.64 171.91-8.3L171.91-8.3Q171.91-7.3 172.63-6.56 173.35-5.81 174.55-5.81ZM211.39-7.35L215.15-7.35 215.15 0 195.4 0 195.4-7.35 199.69-7.35 199.69-29.86 195.4-29.86 195.4-36.5 211.39-38.11 211.39-7.35ZM233.41 0.44L233.41 0.44Q228.86 0.44 225.52-1.25L225.52-1.25Q222.15-2.91 220.36-6.01 218.56-9.11 218.56-13.26L218.56-13.26Q218.56-17.36 220.32-20.39L220.32-20.39Q222.05-23.39 225.23-25.02 228.4-26.66 232.67-26.66L232.67-26.66Q236.6-26.66 239.61-25.12L239.61-25.12Q242.61-23.56 244.26-20.7 245.91-17.85 245.91-14.04L245.91-14.04Q245.91-12.72 245.51-11.55L245.51-11.55 230.3-11.55Q230.3-9.25 232.04-7.87 233.77-6.49 236.21-6.49L236.21-6.49Q238.07-6.49 240.29-7.14 242.51-7.79 244.76-9.16L244.76-9.16 245.17-9.01 245.17-2.44Q242.66-1 240.01-0.28 237.36 0.44 233.41 0.44ZM230.3-16.55L230.3-16.55 230.3-15.84 236.55-15.84 236.55-16.36Q236.55-18.09 235.76-19.35 234.97-20.61 233.41-20.61L233.41-20.61Q232.11-20.61 231.21-19.32 230.3-18.04 230.3-16.55ZM283.31-18.6L280.01-18.6 272.34 0 259.89 0 251.74-18.6 248.15-18.6 248.15-26.15 266.9-26.15 266.9-18.6 264.19-18.6 268.44-6.3 273.15-18.6 270.05-18.6 270.05-26.15 283.31-26.15 283.31-18.6ZM307.2 1.49L310.96 1.49 310.96 9.2 294.07 9.2 294.07 1.49 299.03 1.49 300.37-0.76 288.97-18.6 285.87-18.6 285.87-26.15 304.18-26.15 304.18-18.6 301.76-18.6 305.81-11.11 309.52-18.6 306.86-18.6 306.86-26.15 320.51-26.15 320.51-18.6 317.87-18.6 307.2 1.49Z" opacity="1" transform="matrix(1,0,0,1,0,0)" fill="#ffffff" class="wordmark-text-0" data-fill-palette-color="primary" id="text-0"></path></svg></g></svg></g></svg></g></svg></g><g></g></svg></g></svg></g></svg></g><g><path d="M78.512 96.83A122.216 122.216 0 0 1 317.008 96.83L313.728 96.83A118.936 118.936 0 0 0 81.792 96.83L78.512 96.83M78.512 150.37A122.216 122.216 0 0 0 317.008 150.37L313.728 150.37A118.936 118.936 0 0 1 81.792 150.37L78.512 150.37" fill="#ffffff" stroke="transparent" data-fill-palette-color="tertiary"></path></g></svg></g><defs></defs></svg><rect width="395.52" height="247.2" fill="none" stroke="none" visibility="hidden"></rect></g></svg></g></svg>